<svg width="24" height="24" viewBox="0 0 24 24" fill="none" xmlns="http://www.w3.org/2000/svg">
<mask id="mask0_1645_1455" style="mask-type:alpha" maskUnits="userSpaceOnUse" x="0" y="0" width="24" height="24">
<rect width="24" height="24" fill="white"/>
</mask>
<g mask="url(#mask0_1645_1455)">
<path fill-rule="evenodd" clip-rule="evenodd" d="M17.2418 15.544C18.3268 14.106 18.9778 12.324 18.9778 10.388C18.9778 5.65201 15.1238 1.79901 10.3888 1.79901C5.6528 1.80001 1.7998 5.65301 1.7998 10.389C1.7998 15.124 5.6528 18.978 10.3888 18.978C12.3238 18.978 14.1068 18.327 15.5448 17.242L20.1518 21.849C20.3858 22.083 20.6928 22.2 20.9998 22.2C21.3068 22.2 21.6138 22.083 21.8488 21.848C22.3168 21.38 22.3168 20.62 21.8488 20.151L17.2418 15.544ZM10.3888 4.20001C13.8008 4.20001 16.5768 6.97601 16.5768 10.388C16.5768 13.8 13.8008 16.576 10.3888 16.576C6.9758 16.577 4.1998 13.801 4.1998 10.389C4.1998 6.97601 6.9758 4.20001 10.3888 4.20001Z" fill="white"/>
</g>
</svg>
