<svg width="85" height="27" viewBox="0 0 85 27" fill="none" xmlns="http://www.w3.org/2000/svg">
<path d="M13.81 21V19.2H2.92V0.809999H0.94V21H13.81ZM26.2563 13.32C26.2563 16.14 25.2063 19.59 21.8763 19.59C18.5463 19.59 17.5263 16.14 17.5263 13.32C17.5263 10.53 18.5463 7.11 21.8763 7.11C25.2063 7.11 26.2563 10.53 26.2563 13.32ZM21.8763 5.46C17.4063 5.46 15.5763 9.36 15.5763 13.32C15.5763 17.31 17.4063 21.21 21.8763 21.21C26.3763 21.21 28.1463 17.31 28.1463 13.32C28.1463 9.36 26.3763 5.46 21.8763 5.46ZM32.4684 13.41C32.4684 10.44 33.2184 7.29 36.7884 7.29C40.2384 7.29 40.8084 9.66 40.8084 13.35C40.8084 16.17 40.0884 19.14 36.6684 19.14C33.4584 19.14 32.4684 16.41 32.4684 13.41ZM40.7484 5.91V7.59H40.6884C39.5784 6.03 38.2584 5.46 36.4884 5.46C32.4084 5.46 30.4884 8.82 30.4884 13.47C30.4884 16.86 31.9284 20.94 36.5184 20.94C38.1984 20.94 40.2084 19.95 40.7184 17.97H40.7784C40.7784 22.32 40.0284 25.08 35.4984 25.08C33.8484 25.08 32.1384 24.6 30.9684 24L30.8484 25.95C31.6284 26.22 33.4284 26.73 35.4684 26.73C40.7184 26.73 42.6384 23.25 42.6384 19.02V5.91H40.7484ZM56.5492 13.32C56.5492 16.14 55.4992 19.59 52.1692 19.59C48.8392 19.59 47.8192 16.14 47.8192 13.32C47.8192 10.53 48.8392 7.11 52.1692 7.11C55.4992 7.11 56.5492 10.53 56.5492 13.32ZM52.1692 5.46C47.6992 5.46 45.8692 9.36 45.8692 13.32C45.8692 17.31 47.6992 21.21 52.1692 21.21C56.6692 21.21 58.4392 17.31 58.4392 13.32C58.4392 9.36 56.6692 5.46 52.1692 5.46ZM71.2813 14.46C71.2813 17.19 70.0813 19.59 67.1413 19.59C64.6813 19.59 63.5113 18.12 63.5113 15.51V5.91H61.6513V15.21C61.6513 16.95 61.7413 21.21 66.6613 21.21C68.6113 21.21 70.1713 20.43 71.2213 18.6L71.2813 18.63L71.3713 21H73.3213C73.2313 19.98 73.1413 18.75 73.1413 17.58V5.91H71.2813V14.46ZM78.643 16.74C78.643 18.78 78.493 21.21 82.303 21.21C82.903 21.21 83.563 21.09 84.133 20.97V19.38C83.653 19.56 83.113 19.59 82.573 19.59C81.193 19.59 80.473 18.81 80.503 17.43V7.56H83.923V5.91H80.503V1.92L78.643 2.7V5.91H75.673V7.56H78.643V16.74Z" fill="white"/>
</svg>
