<svg width="23" height="22" viewBox="0 0 23 22" fill="none" xmlns="http://www.w3.org/2000/svg">
<path d="M16.375 13.75H15.3875L15.0375 13.4125C16.2625 11.9875 17 10.1375 17 8.125C17 3.6375 13.3625 0 8.875 0C4.3875 0 0.75 3.6375 0.75 8.125C0.75 12.6125 4.3875 16.25 8.875 16.25C10.8875 16.25 12.7375 15.5125 14.1625 14.2875L14.5 14.6375V15.625L20.75 21.8625L22.6125 20L16.375 13.75ZM8.875 13.75C5.7625 13.75 3.25 11.2375 3.25 8.125C3.25 5.0125 5.7625 2.5 8.875 2.5C11.9875 2.5 14.5 5.0125 14.5 8.125C14.5 11.2375 11.9875 13.75 8.875 13.75Z" fill="#19221F"/>
</svg>
